<svg xmlns="http://www.w3.org/2000/svg" version="1.1" x="0" y="0" viewBox="0 0 14.3 17" enable-background="new 0 0 14.3 17" xml:space="preserve"><path fill="#1270AB" d="M12 6.7V15H2V2h6.9l1.5-2H0v17h14V4.1L12 6.7z"/><path fill="#1270AB" d="M11.4 1.7L13 3c0 0-5.6 7.3-6.2 8.1 -0.1 0.1-0.1 0.2-0.2 0.3 -0.1 0-0.3 0.1-0.4 0.1 -0.2 0.1-0.5 0.1-0.6 0.2C5.2 11.7 5 11.8 5 11.8s0-0.2 0-0.6c0-0.2 0-0.4 0-0.7 0-0.1 0-0.3 0-0.4S5.2 10 5.2 9.8C5.8 9 6.6 8 7.5 6.9 8 6.2 10 3.5 11.4 1.7zM14.3 1.2c-0.1 0.2-0.4 0.6-0.9 1.1l-1.6-1.2c0.4-0.5 0.7-0.9 0.8-1.1L14.3 1.2z"/><polyline fill="#1270AB" points="11.7 1 11.8 1.1 13.4 2.3 "/></svg>