<svg xmlns="http://www.w3.org/2000/svg" version="1.1" x="0" y="0" viewBox="0 0 100 100" enable-background="new 0 0 100 100" xml:space="preserve"><path fill="#E9F6F7" d="M74.2 10L90 25.8c13.4 13.4 13.4 35 0 48.4L74.2 90c-13.4 13.4-35 13.4-48.4 0L10 74.2c-13.4-13.4-13.4-35 0-48.4L25.8 10C39.2-3.3 60.8-3.3 74.2 10z"/><path fill="#D7EFF5" d="M70.3 18.7l11 11c11.2 11.2 11.2 29.3 0 40.5l-11 11c-11.2 11.2-29.3 11.2-40.5 0l-11-11c-11.2-11.2-11.2-29.3 0-40.5l11-11C40.9 7.5 59.1 7.5 70.3 18.7z"/><path fill="#70C282" d="M68.6 73.3c6.4-6.4 8.9-15.1 7.6-23.4 -0.9 5.5-3.4 10.7-7.6 14.9 -10.6 10.6-27.8 10.6-38.3 0 -4.2-4.2-6.7-9.4-7.6-14.9 -1.3 8.3 1.2 17 7.6 23.4C40.8 83.9 58 83.9 68.6 73.3z"/><path fill="#52C8EB" d="M30.3 35C40.8 24.4 58 24.4 68.6 35c4.2 4.2 6.7 9.4 7.6 14.9 1.3-8.3-1.2-17-7.6-23.4C58 16 40.8 16 30.3 26.5c-6.4 6.4-8.9 15.1-7.6 23.4C23.5 44.5 26.1 39.2 30.3 35z"/><path fill="#1D948C" d="M30.3 64.8c-4.2-4.2-6.7-9.4-7.6-14.9 0.9-5.5 3.4-10.7 7.6-14.9C40.8 24.4 58 24.4 68.6 35c4.2 4.2 6.7 9.4 7.6 14.9 -0.9 5.5-3.4 10.7-7.6 14.9C58 75.4 40.8 75.4 30.3 64.8z"/><rect x="37" y="47.5" fill="#FFFFFF" width="25" height="4"/><rect x="47" y="37.5" fill="#FFFFFF" width="4" height="25"/></svg>