<svg xmlns="http://www.w3.org/2000/svg" version="1.1" x="0" y="0" viewBox="0 0 17.2 7.9" enable-background="new 0 0 17.2 7.9" xml:space="preserve"><path fill="#989898" d="M13.3 0c-2.2 0-4 1.8-4 4 0 2.2 1.8 4 4 4 2.2 0 4-1.8 4-4C17.2 1.8 15.4 0 13.3 0zM13.3 6.1c-1.2 0-2.1-0.9-2.1-2.1 0-1.2 0.9-2.1 2.1-2.1 1.2 0 2.1 0.9 2.1 2.1C15.3 5.1 14.4 6.1 13.3 6.1z"/><rect y="2.8" fill="#989898" width="11" height="2"/><rect y="2.8" fill="#989898" width="2" height="5"/><rect x="4" y="2.8" fill="#989898" width="2" height="4"/></svg>