<svg xmlns="http://www.w3.org/2000/svg" version="1.1" x="0" y="0" viewBox="0 0 100 100" enable-background="new 0 0 100 100" xml:space="preserve"><path fill="#E9F6F7" d="M74.2 10L90 25.8c13.4 13.4 13.4 35 0 48.4L74.2 90c-13.4 13.4-35 13.4-48.4 0L10 74.2c-13.4-13.4-13.4-35 0-48.4L25.8 10C39.2-3.3 60.8-3.3 74.2 10z"/><path fill="#D7EFF5" d="M70.3 18.7l11 11c11.2 11.2 11.2 29.3 0 40.5l-11 11c-11.2 11.2-29.3 11.2-40.5 0l-11-11c-11.2-11.2-11.2-29.3 0-40.5l11-11C40.9 7.5 59.1 7.5 70.3 18.7z"/><polygon fill="#52C8EB" points="52.7 62.7 53.3 68.1 69.7 68.8 69.7 76.1 31.7 76.1 31.7 21.9 69.7 21.9 69.7 62.3 "/><polygon fill="#1D948C" points="69.7 62.3 69.7 68.8 52.7 68.8 46.8 65.6 52.7 62.3 "/><rect x="38.6" y="47.5" fill="#FFFFFF" width="14" height="3"/><rect x="69.6" y="62.5" fill="#70C282" width="12" height="6"/><rect x="38.6" y="29.5" fill="#FFFFFF" width="24" height="3"/><rect x="83.6" y="62.5" fill="#70C282" width="3" height="6"/><rect x="38.6" y="38.5" fill="#FFFFFF" width="24" height="3"/></svg>