<svg xmlns="http://www.w3.org/2000/svg" version="1.1" x="0" y="0" viewBox="0 0 15 18.1" enable-background="new 0 0 15 18.1" xml:space="preserve"><path fill="none" stroke="#575757" stroke-miterlimit="10" d="M14.5 15.5h-14l0 0c0 0 0-0.9 0.2-1.2C2 12.4 3 10.6 3 8.4V6.8c0-2.5 2-4.5 4.5-4.5h0c2.5 0 4.5 2 4.5 4.5v1.6c0 2.2 1.1 4.1 2.3 5.9C14.6 14.7 14.5 15.5 14.5 15.5L14.5 15.5zM9.7 15.4L9.7 15.4c0 1.2-1 2.2-2.2 2.2h0c-1.2 0-2.2-1-2.2-2.2v0"/><line fill="none" stroke="#575757" stroke-miterlimit="10" x1="7.4" y1="2" x2="7.4" y2="0"/></svg>