<svg xmlns="http://www.w3.org/2000/svg" version="1.1" x="0" y="0" viewBox="0 0 100 100" enable-background="new 0 0 100 100" xml:space="preserve"><path fill="#E9F6F7" d="M74.2 10L90 25.8c13.4 13.4 13.4 35 0 48.4L74.2 90c-13.4 13.4-35 13.4-48.4 0L10 74.2c-13.4-13.4-13.4-35 0-48.4L25.8 10C39.2-3.3 60.8-3.3 74.2 10z"/><path fill="#D7EFF5" d="M70.3 18.7l11 11c11.2 11.2 11.2 29.3 0 40.5l-11 11c-11.2 11.2-29.3 11.2-40.5 0l-11-11c-11.2-11.2-11.2-29.3 0-40.5l11-11C40.9 7.5 59.1 7.5 70.3 18.7z"/><path fill="#52C8EB" d="M53 56c-4.3 2.9-7.1 8-7.1 13.5v4.1H22.6v-6.1c0-8.9 6.9-16.5 15.8-16.5h3.2C46.1 51 50.1 53.1 53 56z"/><path fill="#1D948C" d="M56.8 67.5v6.5h-11v-4.5c0-5.5 2.5-10.4 6.7-13.3C55.4 59.1 56.8 63.1 56.8 67.5z"/><path fill="#70C282" d="M77.8 69.5v4.5h-21v-6.5c0-4.4-1.3-8.4-4.2-11.3 2.6-1.7 5.9-2.8 9.2-2.8 4.4 0 8.4 1.8 11.3 4.7C76.1 61.1 77.8 65.1 77.8 69.5z"/><circle fill="#52C8EB" cx="40" cy="35.5" r="9.5"/><circle fill="#70C282" cx="63.7" cy="39" r="8.6"/></svg>