<svg xmlns="http://www.w3.org/2000/svg" version="1.1" x="0" y="0" viewBox="0 0 151.1 42.5" enable-background="new 0 0 151.1 42.5" xml:space="preserve"><path fill="#575757" d="M61 9.2h4.6v23.5h-2.8v0.1L50.3 16.8v15.9H46V9.2h3.5L61 23.8V9.2zM85.4 24.5c0 4.8-3.3 8.7-8.7 8.7s-8.6-3.9-8.6-8.7c0-4.7 3.3-8.7 8.6-8.7C82 15.8 85.4 19.7 85.4 24.5zM72.3 24.5c0 2.5 1.5 4.9 4.5 4.9 3 0 4.5-2.4 4.5-4.9 0-2.5-1.8-4.9-4.5-4.9C73.8 19.5 72.3 22 72.3 24.5zM93.4 11.5v4.9H98v3.2h-4.6v7.3c0 1.6 0.9 2.4 2.1 2.4 0.6 0 1.4-0.2 2-0.5l1.1 3.5c-1.2 0.5-2.2 0.7-3.5 0.7 -3.6 0.1-6-1.9-6-6.1v-7.3h-2.8v-3.2h2.8v-4.4L93.4 11.5zM130.1 15.7c-1.7 0-3.5 0.4-4.8 2.1l-0.1-1.8h-4v16.4h4.3V24c0-3.1 2-4.2 4.1-4.2 1 0 1.9 0.2 2.3 0.4v-4.3C131.5 15.8 130.7 15.7 130.1 15.7z"/><polygon fill="#70C282" points="33.9 21.9 13.3 42.5 0 29.2 4.3 24.9 13.3 33.9 29.6 17.6 "/><rect x="5.4" y="14.8" transform="matrix(0.7072 -0.707 0.707 0.7072 -10.0587 18.2136)" fill="#187A8A" width="23" height="12.8"/><polygon fill="#2AC4ED" points="33.9 13.3 29.6 17.6 20.6 8.6 4.3 24.9 0 20.6 20.6 0 "/><path fill="#575757" d="M151.1 16L141 39.8h-4.5l3.1-7.4L132.9 16h4.8l2.5 7.3 1.6 4.7 1.7-4.6 3-7.3H151.1zM113.5 16h3.7v16.4h-3.7l-0.2-2.4c-0.9 1.9-3.5 2.9-5.3 2.9 -4.9 0-8.5-3-8.5-8.7 0-5.7 3.8-8.6 8.6-8.6 2.2 0 4.3 1 5.2 2.7L113.5 16zM103.5 24.2c0 3.1 2.4 5 4.9 5 6.4 0 6.4-10 0-10C105.8 19.2 103.5 21.1 103.5 24.2z"/></svg>