<svg xmlns="http://www.w3.org/2000/svg" version="1.1" x="0" y="0" viewBox="0 0 558 490" xml:space="preserve"><style type="text/css">
	.st0{fill:#8ACC98;}
	.st1{fill:#70C282;}
	.st2{fill:#187A8A;}
	.st3{opacity:0.3;fill:#70C282;}
	.st4{fill:#2AC4ED;}
	.st5{fill:#7FD2EA;}
	.st6{opacity:0.3;fill:#2AC4ED;}
</style><path class="st0" d="M96.4 188.6l-25.1 25.1 -52.6-52.6c-18-18-18-47.2 0-65.1l77.7-77.7c18-18 47.1-18 65.1 0L239.3 96c18 18 18 47.2 0 65.1l-52.6 52.6 -25.1-25.1C143.5 170.6 114.4 170.6 96.4 188.6z"/><path class="st1" d="M220.4 152.5l-60 60c-12.1 12.1-31.8 12.1-43.9 0l-60-60c-12.1-12.1-12.1-31.8 0-43.9l60-60c12.1-12.1 31.8-12.1 43.9 0l60 60C232.5 120.7 232.5 140.4 220.4 152.5z"/><path class="st2" d="M96.4 238.9l-25.1-25.1 25.1-25.1c18-18 47.1-18 65.1 0l25.1 25.1 -25.1 25.1C143.5 256.9 114.4 256.9 96.4 238.9z"/><path class="st3" d="M172.9 200l-12.5 12.5c-12.1 12.1-31.8 12.1-43.9 0l-22-22 1.9-1.9c18-18 47.2-18 65.1 0L172.9 200z"/><path class="st4" d="M96.4 324.7l-35.5-35.5c-18-18-18-47.2 0-65.1l10.3-10.3 25.1 25.1c18 18 47.1 18 65.1 0l25.1-25.1 10.3 10.3c18 18 18 47.2 0 65.1l-35.5 35.5C143.5 342.7 114.4 342.7 96.4 324.7z"/><path class="st5" d="M395.4 335.6l-25.1 25.1 -52.6-52.6c-18-18-18-47.2 0-65.1l77.7-77.7c18-18 47.1-18 65.1 0l77.7 77.7c18 18 18 47.2 0 65.1l-52.6 52.6 -25.1-25.1C442.5 317.6 413.4 317.6 395.4 335.6z"/><path class="st4" d="M503.3 298.9l-60 60c-12.1 12.1-31.8 12.1-43.9 0l-60-60c-12.1-12.1-12.1-31.8 0-43.9l60-60c12.1-12.1 31.8-12.1 43.9 0l60 60C515.4 267.1 515.4 286.7 503.3 298.9z"/><path class="st2" d="M395.4 385.9l-25.1-25.1 25.1-25.1c18-18 47.1-18 65.1 0l25.1 25.1 -25.1 25.1C442.5 403.9 413.4 403.9 395.4 385.9z"/><path class="st6" d="M463.5 338.6l-20.3 20.3c-12.1 12.1-31.8 12.1-43.9 0l-13.6-13.6 9.6-9.6c18-18 47.2-18 65.1 0L463.5 338.6z"/><path class="st1" d="M395.4 471.7l-35.5-35.5c-18-18-18-47.2 0-65.1l10.3-10.3 25.1 25.1c18 18 47.1 18 65.1 0l25.1-25.1 10.3 10.3c18 18 18 47.2 0 65.1l-35.5 35.5C442.5 489.7 413.4 489.7 395.4 471.7z"/></svg>