<svg xmlns="http://www.w3.org/2000/svg" version="1.1" id="Layer_1" x="0px" y="0px" viewBox="0 0 188.8 191.6" enable-background="new 0 0 188.8 191.6" xml:space="preserve"><g id="XMLID_31_"><g id="XMLID_5312_"><path id="XMLID_143_" fill="#D8EFF2" d="M118.4 12.8l60.4 60.4c13.2 13.2 13.2 34.7 0 48l-60.4 60.4c-13.2 13.2-34.7 13.2-48 0L9.9 121.2c-13.2-13.2-13.2-34.7 0-48l60.4-60.4C83.6-0.5 105.1-0.5 118.4 12.8z"/></g><path id="XMLID_5309_" opacity="0.7" fill="#AFDFE3" d="M110 25.8l55.8 55.8c8.6 8.6 8.6 22.7 0 31.3L110 168.6c-8.6 8.6-22.7 8.6-31.3 0l-55.8-55.8c-8.6-8.6-8.6-22.7 0-31.3l55.8-55.8C87.4 17.1 101.4 17.1 110 25.8z"/><path id="XMLID_5308_" fill="#D8EFF2" d="M40.5 81.7c0 0-20.1 0.8-22.4 11.6 -6.6 7.5 3.8-11.6 3.8-11.6H40.5L40.5 81.7z"/><path id="XMLID_5307_" fill="#D8EFF2" d="M119.6 52.9c0 0 16.2 0.8 29.3 11.6 6.3-1.2-10.7-11.6-10.7-11.6H119.6L119.6 52.9z"/><g id="XMLID_36_"><path id="XMLID_5304_" fill="#52C8EB" d="M90.6 23.1H77.1c-2.2 0-3.9 1.8-3.9 3.9v0.7h21.3V27C94.5 24.9 92.8 23.1 90.6 23.1z"/><rect id="XMLID_5303_" x="94.7" y="79.1" fill="#52C8EB" width="26.8" height="80.6"/><polygon id="XMLID_5566_" opacity="0.4" fill="#D5EEF5" points="121.5 79 121.5 130 116.5 130 116.5 129.7 111.5 134.3 111.5 79 "/><g id="XMLID_5301_"><image overflow="visible" opacity="0.2" width="384" height="259" id="XMLID_139_" transform="matrix(0.24 0 0 0.24 87.1706 6.3589)"/><g id="XMLID_132_"><path id="XMLID_138_" fill="#FFFFFF" d="M160.5 44.6v0.1c0 4.3-4.1 7.3-8.4 7.3h-46.3c-4.3 0-7.2-2.9-7.2-7.3v-0.1c0-4.3 2.9-8.6 7.2-8.6h5.8v0.6c0-8.9 7.8-16.6 16.6-16.6h1.5c8.2 0 14.6 6.5 15.5 14.4 0 0.1 0 0.1 0 0.2 0 0.5 0.1 1.4 0.1 1.4h6.8C156.3 36 160.5 40.3 160.5 44.6z"/></g></g><rect id="XMLID_5298_" x="65.5" y="46.1" fill="#60BE78" width="36.1" height="121.8"/><rect id="XMLID_5295_" x="83.9" y="46.1" opacity="0.36" fill="#93CF9F" width="17.7" height="121.8"/><polygon id="XMLID_5265_" fill="#93CF9F" points="83.9 92.7 101.6 71.2 101.6 46.1 83.9 46.1 "/><rect id="XMLID_5292_" x="115.4" y="130" fill="#1D948C" width="6" height="25.6"/><polygon id="XMLID_5289_" fill="#70C282" points="139.4 130 139.4 155.5 115.4 155.5 115.4 155.5 121.4 155.5 121.4 130 "/><rect id="XMLID_5286_" x="26.8" y="117.9" fill="#52C8EB" width="38.7" height="37.6"/><path id="XMLID_5283_" fill="#52C8EB" d="M161.9 140.2v15.7h-5.3v-15.7c0.9 0.2 1.8 0.3 2.7 0.3S161.1 140.4 161.9 140.2z"/><path id="XMLID_5280_" fill="#187A8A" d="M162.2 131.7v8.5c-0.8 0.2-1.9 0.3-2.8 0.3s-1.9-0.1-2.8-0.3v-8.5H162.2z"/><path id="XMLID_5277_" fill="#70C282" d="M172 127.9c0 6-4.2 11.1-9.8 12.3v-8.5h-5.6v8.5c-5.7-1.2-9.9-6.3-9.9-12.3 0-7 5.7-12.6 12.7-12.6C166.3 115.3 172 120.9 172 127.9z"/><path id="XMLID_5276_" fill="#93CF9F" d="M170.3 127.9c0 3.8-1.9 7.1-4.8 9.1 1.2-1.8 1.9-3.9 1.9-6.2 0-6.1-5-11-11-11 -2.3 0-4.4 0.7-6.2 1.9 2-2.9 5.3-4.8 9.1-4.8C165.4 116.9 170.3 121.8 170.3 127.9z"/><rect id="XMLID_5273_" x="65.5" y="117.9" fill="#1D948C" width="8.5" height="37.6"/><rect id="XMLID_5270_" x="94.7" y="79.1" fill="#1D948C" width="6.9" height="80.5"/><rect id="XMLID_5267_" x="94.7" y="79.1" fill="#1D948C" width="7.9" height="80.5"/><rect id="XMLID_5264_" x="65.5" y="43.3" fill="#1D948C" width="36.1" height="2.8"/><path id="XMLID_5261_" fill="#52C8EB" d="M104.3 41.4v4.4h-2.7v-2.5H65.5v2.5h-2v-5c0-1.1 0.9-2 2-2h36.1C103.1 38.7 104.3 39.9 104.3 41.4z"/><path id="XMLID_5258_" fill="#52C8EB" d="M72.5 30.3h-0.6c-1 0-1.9 0.8-1.9 1.9v3.5h4.3v-3.5C74.4 31.2 73.5 30.3 72.5 30.3z"/><path id="XMLID_5255_" fill="#52C8EB" d="M77.8 30.3h-0.6c-1 0-1.9 0.8-1.9 1.9v3.5h4.3v-3.5C79.7 31.2 78.8 30.3 77.8 30.3z"/><path id="XMLID_5252_" fill="#52C8EB" d="M83 30.3h-0.6c-1 0-1.9 0.8-1.9 1.9v3.5h4.3v-3.5C84.9 31.2 84.1 30.3 83 30.3z"/><path id="XMLID_5249_" fill="#7FD2EA" d="M88.3 30.3h-0.6c-1 0-1.9 0.8-1.9 1.9v3.5h4.3v-3.5C90.2 31.2 89.3 30.3 88.3 30.3z"/><path id="XMLID_5246_" fill="#7FD2EA" d="M93.5 30.3H93c-1 0-1.9 0.8-1.9 1.9v3.5h4.3v-3.5C95.4 31.2 94.6 30.3 93.5 30.3z"/><path id="XMLID_5243_" fill="#7FD2EA" d="M97.6 31.8h-0.3c-0.5 0-0.9 0.4-0.9 0.9v3h2.2v-3C98.6 32.2 98.2 31.8 97.6 31.8z"/><path id="XMLID_5240_" fill="#52C8EB" d="M68.4 31.8h-0.3c-0.5 0-0.9 0.4-0.9 0.9v3h2.2v-3C69.4 32.2 68.9 31.8 68.4 31.8z"/><path id="XMLID_5239_" opacity="0.4" fill="#D5EEF5" d="M90.8 23.1h-8v4.6h11.9V27C94.7 24.9 92.9 23.1 90.8 23.1z"/><rect id="XMLID_5236_" x="88.8" y="51.8" fill="#CEE8D5" width="5.3" height="6.9"/><rect id="XMLID_5235_" x="88.8" y="66.7" fill="#FFFFFF" width="5.3" height="6.9"/><rect id="XMLID_5232_" x="73" y="51.8" fill="#93CF9F" width="5.3" height="6.9"/><rect id="XMLID_5229_" x="74.8" y="51.8" fill="#CEE8D5" width="3.4" height="4.5"/><rect id="XMLID_5226_" x="73" y="66.7" fill="#93CF9F" width="5.3" height="6.9"/><rect id="XMLID_5225_" x="106.4" y="96" fill="#FFFFFF" width="11.2" height="4.3"/><rect id="XMLID_5224_" x="106.4" y="96" opacity="0.2" fill="#52C8EB" width="11.2" height="2"/><rect id="XMLID_5223_" x="106.4" y="87" fill="#FFFFFF" width="11.2" height="4.1"/><rect id="XMLID_5222_" x="106.4" y="105" fill="#FFFFFF" width="11.2" height="4.6"/><polygon id="XMLID_5219_" fill="#1D948C" points="74.4 109.9 76.2 114.3 65.2 114.3 65.2 105.8 "/><polygon id="XMLID_5215_" fill="#52C8EB" points="65.5 105.8 65.5 114.3 22.7 114.3 24.5 109.9 49.2 98.4 "/><rect id="XMLID_5214_" x="33.4" y="125.7" fill="#FFFFFF" width="4.3" height="25.2"/><rect id="XMLID_5213_" x="43.5" y="125.7" fill="#FFFFFF" width="4.3" height="25.2"/><rect id="XMLID_5212_" x="53.6" y="125.7" fill="#FFFFFF" width="4.3" height="25.2"/><rect id="XMLID_5211_" x="31.3" y="125.7" opacity="0.3" fill="#D5EEF5" width="4.3" height="25.2"/><rect id="XMLID_5209_" x="41.4" y="125.7" opacity="0.3" fill="#D5EEF5" width="4.3" height="25.2"/><rect id="XMLID_5208_" x="51.5" y="125.7" opacity="0.3" fill="#D5EEF5" width="4.3" height="25.2"/><rect id="XMLID_42_" x="22.7" y="150.9" fill="#52C8EB" width="9.6" height="4.7"/><path id="XMLID_4068_" fill="#52C8EB" d="M25.6 151.8h8.4v-1.7c0-0.8-0.7-1.5-1.5-1.5h-5.4c-0.8 0-1.5 0.7-1.5 1.5V151.8z"/><path id="XMLID_3990_" fill="#52C8EB" d="M36.5 151.8h7.9v-1.7c0-0.8-0.7-1.5-1.5-1.5H38c-0.8 0-1.5 0.7-1.5 1.5V151.8z"/><path id="XMLID_3805_" fill="#52C8EB" d="M46.7 151.8h7.9v-1.7c0-0.8-0.7-1.5-1.5-1.5h-4.9c-0.8 0-1.5 0.7-1.5 1.5V151.8z"/><path id="XMLID_3538_" fill="#52C8EB" d="M56.8 151.8h7.9v-1.7c0-0.8-0.7-1.5-1.5-1.5h-4.9c-0.8 0-1.5 0.7-1.5 1.5V151.8z"/><path id="XMLID_3435_" fill="#52C8EB" d="M20.9 162h46.3v-3.5H20.9c-0.8 0-1.5 0.7-1.5 1.5v0.4C19.4 161.3 20.1 162 20.9 162z"/><path id="XMLID_3406_" fill="#1D948C" d="M65.5 162h7c0.8 0 1.5-0.7 1.5-1.5V160c0-0.8-0.7-1.5-1.5-1.5h-7V162z"/><rect id="XMLID_3384_" x="22.7" y="117.9" fill="#52C8EB" width="9.6" height="4.7"/><polygon id="XMLID_3380_" fill="#70C282" points="133.9 134.6 141.1 134.6 143.5 130 133.9 130 "/><polygon id="XMLID_3373_" fill="#52C8EB" points="84.3 0 81.6 20.1 86.2 20.1 "/><polygon id="XMLID_3368_" fill="#60BE78" points="96.1 64.1 81.6 64.1 81.6 62.5 98.1 62.5 "/><rect id="XMLID_3364_" x="81.6" y="46.1" fill="#5EBD71" width="20" height="1.6"/><path id="XMLID_3358_" fill="#7FD2EA" d="M121.3 82.6h-3.8v-3.4h3.8c0.8 0 1.5 0.7 1.5 1.5v0.4C122.8 81.9 122.2 82.6 121.3 82.6z"/><rect id="XMLID_3318_" x="88.8" y="66.7" fill="#CEE8D5" width="5.3" height="6.9"/><rect id="XMLID_3297_" x="73" y="66.7" fill="#93CF9F" width="5.3" height="6.9"/><rect id="XMLID_3292_" x="73" y="96.6" fill="#93CF9F" width="5.3" height="6.9"/><rect id="XMLID_3289_" x="73" y="81.7" fill="#93CF9F" width="5.3" height="6.9"/><polygon id="XMLID_3286_" fill="#60BE78" points="89.5 79 81.6 79 81.6 77.4 91.5 77.4 "/><rect id="XMLID_3267_" x="74.8" y="66.7" fill="#CEE8D5" width="3.4" height="4.5"/><rect id="XMLID_3258_" x="90.7" y="51.8" fill="#FFFFFF" width="3.4" height="4.5"/><rect id="XMLID_46_" x="90.7" y="66.7" fill="#FFFFFF" width="3.4" height="4.5"/><rect id="XMLID_52_" x="74.8" y="81.7" fill="#CEE8D5" width="3.4" height="4.5"/><rect id="XMLID_53_" x="74.8" y="96.6" fill="#CEE8D5" width="3.4" height="4.5"/><rect id="XMLID_56_" x="106.4" y="87" opacity="0.2" fill="#52C8EB" width="11.2" height="2"/><polygon id="XMLID_69_" fill="#52C8EB" points="117.6 91.1 106.4 92.7 106.4 91.1 117.6 91.1 "/><polygon id="XMLID_81_" fill="#52C8EB" points="117.5 100.3 106.3 101.9 106.3 100.3 117.5 100.3 "/><polygon id="XMLID_83_" fill="#52C8EB" points="117.5 109.6 106.3 111.2 106.3 109.6 117.5 109.6 "/><rect id="XMLID_90_" x="106.4" y="105" opacity="0.2" fill="#52C8EB" width="11.2" height="2"/><polyline id="XMLID_123_" opacity="0.4" fill="#D5EEF5" points="48.4 101 62.5 106.9 62.5 111 48.5 111 48.5 101 "/><circle id="XMLID_154_" fill="#FFFFFF" cx="48.6" cy="106.4" r="2.2"/><rect id="XMLID_163_" x="132.8" y="135.3" fill="#CEE8D5" width="3.4" height="4.5"/><rect id="XMLID_166_" x="123.8" y="135.3" fill="#CEE8D5" width="3.4" height="4.5"/><rect id="XMLID_1019_" x="125" y="135.3" fill="#FFFFFF" width="2.2" height="2.9"/><rect id="XMLID_169_" x="134" y="135.3" fill="#FFFFFF" width="2.2" height="2.9"/></g><rect id="XMLID_3275_" x="94.7" y="70.2" fill="#93CF9F" width="6.9" height="8.9"/><polyline id="XMLID_3278_" fill="#52C8EB" points="116.5 83 109.2 86.8 108.9 83 116.5 83 "/></g><rect id="XMLID_5272_" x="94.7" y="71.2" fill="#93CF9F" width="6.9" height="7.8"/><g id="XMLID_230_"><image overflow="visible" opacity="0.2" width="384" height="259" id="XMLID_19_" transform="matrix(0.24 0 0 0.24 4.3416 36.1732)"/><g id="XMLID_12_"><path id="XMLID_18_" fill="#FFFFFF" d="M77.5 74.4v0.1c0 4.3-4 7.4-8.3 7.4H22.9c-4.3 0-7.4-3.1-7.4-7.4v-0.1c0-4.3 3.1-8.4 7.4-8.4h6.6v0.4c0-8.9 6.9-16.4 15.8-16.4h1.5c8.2 0 14.6 6.4 15.5 14.3 0 0.1 0 0.1 0 0.2 0 0.5 0.1 1.4 0.1 1.4h6.8C73.5 66 77.5 70.1 77.5 74.4z"/></g></g></svg>